<?xml version="1.0" encoding="UTF-8"?>
<svg version="1.1" xmlns="http://www.w3.org/2000/svg" width="369" height="250">
<path d="M0 0 C0.66 0 1.32 0 2 0 C0.60784948 4.4986691 -1.17068876 8.60530974 -3.2578125 12.82421875 C-3.88942745 14.11257897 -4.52093475 15.40099196 -5.15234375 16.68945312 C-6.14236258 18.69834784 -7.13429644 20.70626706 -8.12841797 22.71313477 C-9.09325268 24.66439788 -10.05088836 26.61906699 -11.0078125 28.57421875 C-11.86850342 30.31578247 -11.86850342 30.31578247 -12.74658203 32.0925293 C-14.19794102 34.93146069 -14.19794102 34.93146069 -14 38 C-13.48840332 38.21503174 -12.97680664 38.43006348 -12.44970703 38.65161133 C4.76053156 45.95704899 21.06697152 54.35273757 35 67 C35.74765625 67.66644531 36.4953125 68.33289063 37.265625 69.01953125 C43.87248041 75.22263439 48.41289291 81.80198898 49 91 C49.886875 91.28875 50.77375 91.5775 51.6875 91.875 C54.50382424 92.83148748 57.25083156 93.86798946 60 95 C56.18510326 96.46726798 53.70988378 95.43336419 50 94 C49.01 95.98 49.01 95.98 48 98 C44.37 98 40.74 98 37 98 C37.7425 96.8553125 37.7425 96.8553125 38.5 95.6875 C40.24368308 93.07636249 40.24368308 93.07636249 40 90 C37.03 89.01 37.03 89.01 34 88 C33.66396255 88.83716049 33.32792511 89.67432098 32.98170471 90.53684998 C29.82060051 98.41070679 26.65705134 106.28357572 23.49072361 114.15533352 C21.86281575 118.20270121 20.23586942 122.25044997 18.61108398 126.29907227 C17.04422259 130.20325938 15.47488336 134.10644177 13.90379143 138.0089283 C13.30362783 139.50096895 12.70437118 140.99337472 12.10601997 142.48614311 C11.27039623 144.57041906 10.43161128 146.65339523 9.59204102 148.73608398 C9.11460953 149.92411118 8.63717804 151.11213837 8.14527893 152.33616638 C7 155 7 155 6 156 C4.65732587 156.08631874 3.31025678 156.10706473 1.96484375 156.09765625 C1.15595703 156.09443359 0.34707031 156.09121094 -0.48632812 156.08789062 C-1.33646484 156.07951172 -2.18660156 156.07113281 -3.0625 156.0625 C-3.91650391 156.05798828 -4.77050781 156.05347656 -5.65039062 156.04882812 C-7.76695663 156.03700373 -9.88348685 156.01906769 -12 156 C-7.09080422 142.65043253 -1.87108689 129.42600195 3.36987305 116.20385742 C4.34204038 113.74999453 5.31307376 111.29572352 6.28198242 108.84057617 C7.69188007 105.2689771 9.10521517 101.6987576 10.51953125 98.12890625 C10.954897 97.0249501 11.39026276 95.92099396 11.83882141 94.78358459 C12.23981552 93.77420334 12.64080963 92.76482208 13.05395508 91.72485352 C13.40669998 90.8337941 13.75944489 89.94273468 14.12287903 89.02467346 C15 87 15 87 16 86 C17.84891946 85.76636119 19.70488031 85.58696365 21.5625 85.4375 C23.08037109 85.31181641 23.08037109 85.31181641 24.62890625 85.18359375 C25.41136719 85.12300781 26.19382813 85.06242187 27 85 C26.17612793 84.68361572 25.35225586 84.36723145 24.50341797 84.04125977 C20.62634178 82.55076093 16.75040191 81.05734548 12.875 79.5625 C12.17548218 79.29288452 11.47596436 79.02326904 10.75524902 78.7454834 C0.61601381 74.83396229 -9.47633282 70.82971821 -19.48486328 66.59204102 C-20.30970215 66.24713623 -21.13454102 65.90223145 -21.984375 65.546875 C-23.04736816 65.09586426 -23.04736816 65.09586426 -24.13183594 64.63574219 C-26.14444694 63.83892 -26.14444694 63.83892 -29 64 C-30.44399533 65.98359972 -31.64772881 67.89042139 -32.8515625 70.015625 C-33.22265137 70.64952148 -33.59374023 71.28341797 -33.97607422 71.93652344 C-34.78003033 73.31264052 -35.57891746 74.69172851 -36.37335205 76.07336426 C-38.06620137 79.01725621 -39.78293097 81.94696566 -41.49813843 84.87786865 C-42.3791731 86.38415176 -43.25890013 87.89120042 -44.13735962 89.39898682 C-48.21817923 96.39984275 -52.40495182 103.33243277 -56.625 110.25 C-57.32304719 111.39648629 -58.02096357 112.54305224 -58.71875 113.68969727 C-60.11121949 115.97735179 -61.50448879 118.26451607 -62.8984375 120.55126953 C-66.12167427 125.83958029 -69.33830502 131.13190009 -72.55358887 136.42504883 C-73.61290634 138.16760616 -74.67398349 139.9090817 -75.73535156 141.65039062 C-79.30384093 147.51175129 -82.83010779 153.39425611 -86.296875 159.31640625 C-86.98982124 160.49404385 -87.68301332 161.67153682 -88.37646484 162.84887695 C-89.68303202 165.07240339 -90.98063394 167.30122869 -92.26806641 169.53588867 C-93.1369751 171.01085815 -93.1369751 171.01085815 -94.0234375 172.515625 C-94.52794434 173.38477539 -95.03245117 174.25392578 -95.55224609 175.14941406 C-96.03000488 175.76010742 -96.50776367 176.37080078 -97 177 C-97.99 177 -98.98 177 -100 177 C-82.39590289 142.51502019 -82.39590289 142.51502019 -74.19824219 127.66552734 C-70.18049364 120.37761547 -66.3344344 113.00735985 -62.50732422 105.61791992 C-58.56915164 98.03613202 -54.50750264 90.52755391 -50.359375 83.05859375 C-46.00049399 75.15812192 -42.00037238 67.0859262 -38 59 C-40.60928956 57.79278379 -43.21866653 56.58575729 -45.828125 55.37890625 C-46.64058182 55.00312439 -47.45303864 54.62734253 -48.29011536 54.24017334 C-52.74435783 52.18072961 -57.19994101 50.12425741 -61.65795898 48.07299805 C-63.44254578 47.25179082 -65.22713237 46.43058315 -67.01171875 45.609375 C-67.88875961 45.20588333 -68.76580048 44.80239166 -69.66941833 44.38667297 C-74.40326888 42.20604741 -79.12482384 40.00315149 -83.83203125 37.765625 C-84.74629883 37.33693115 -85.66056641 36.9082373 -86.60253906 36.46655273 C-88.18714536 35.72315913 -89.76644929 34.96830171 -91.33886719 34.19946289 C-95.61736849 32.21402446 -98.449609 31.55553907 -103 33 C-106.19806164 36.41126575 -106.6313177 40.07680944 -106.48828125 44.59375 C-105.57129586 49.11265399 -102.82142085 52.45381049 -100 56 C-99.40058594 56.80566406 -98.80117187 57.61132812 -98.18359375 58.44140625 C-95.65742333 61.40140915 -92.86568876 63.80200659 -89.8125 66.1875 C-89.21679199 66.65655762 -88.62108398 67.12561523 -88.00732422 67.60888672 C-81.77180559 72.38758328 -75.06168487 76.25467934 -68.2265625 80.1015625 C-66.62941406 81.04128906 -66.62941406 81.04128906 -65 82 C-65 82.33 -65 82.66 -65 83 C-77.12307097 83.84508099 -89.10406637 73.44132827 -98 66 C-104.65743271 60.13912782 -110.30178501 54.16838748 -114 46 C-114.33 45.34 -114.66 44.68 -115 44 C-115.39771327 39.22744077 -115.47453429 36.91517328 -113.25 32.625 C-111.19058525 30.22234945 -109.9359595 29.04855696 -107 28 C-107 27.34 -107 26.68 -107 26 C-108.22589844 25.62230469 -109.45179687 25.24460937 -110.71484375 24.85546875 C-116.87345086 22.80259971 -122.68751626 20.0569921 -128.5625 17.3125 C-129.66658203 16.80138672 -130.77066406 16.29027344 -131.90820312 15.76367188 C-134.60747498 14.5133598 -137.30464455 13.25872684 -140 12 C-140 11.67 -140 11.34 -140 11 C-134.39981807 11.51791359 -129.9241284 12.57968372 -124.68359375 14.7578125 C-123.32891979 15.30634473 -121.9740976 15.854511 -120.61914062 16.40234375 C-118.52133416 17.26349933 -116.42591536 18.12983601 -114.33325195 19.00341797 C-112.28888805 19.85250869 -110.23707834 20.68107292 -108.18359375 21.5078125 C-106.97243896 22.00941895 -105.76128418 22.51102539 -104.51342773 23.02783203 C-100.53023677 24.12998382 -98.01982351 23.79819253 -94 23 C-68.57649712 21.42711737 -44.94176493 26.71722074 -21 35 C-20.73356689 34.28376465 -20.46713379 33.5675293 -20.19262695 32.82958984 C-18.97584012 29.94267901 -17.54780377 27.40040879 -15.91796875 24.7265625 C-15.31533203 23.7365625 -14.71269531 22.7465625 -14.09179688 21.7265625 C-13.46337891 20.70304687 -12.83496094 19.67953125 -12.1875 18.625 C-11.57068359 17.60921875 -10.95386719 16.5934375 -10.31835938 15.546875 C-3.7021663 4.71909888 -3.7021663 4.71909888 0 0 Z M-90 27 C-90.33 27.66 -90.66 28.32 -91 29 C-85.63344702 31.15165113 -80.26639635 33.3020549 -74.89892578 35.45141602 C-73.0817388 36.17928241 -71.26467678 36.9074609 -69.44775391 37.63598633 C-57.32596864 42.49610444 -45.18186062 47.29239881 -33 52 C-29.06459567 48.12427727 -26.49089815 44.88954082 -24 40 C-24 39.34 -24 38.68 -24 38 C-45.6701605 29.94633882 -66.85151621 25.92876873 -90 27 Z M-17 41 C-18.17176518 43.12232979 -19.33754785 45.24757791 -20.5 47.375 C-20.83386719 47.97828125 -21.16773438 48.5815625 -21.51171875 49.203125 C-23.38773938 52.41414777 -23.38773938 52.41414777 -24 56 C7.32238145 71.37541931 7.32238145 71.37541931 39 86 C39.63722591 84.12969966 39.63722591 84.12969966 40 82 C38.79465917 79.69889478 37.62171282 78.00354467 36 76 C35.38898438 75.24332031 34.77796875 74.48664063 34.1484375 73.70703125 C21.78954137 59.2134167 2.91132258 47.5493927 -15 41 C-15.66 41 -16.32 41 -17 41 Z " fill="#1189F9" transform="translate(200,14)"/>
<path d="M0 0 C6.6 0 13.2 0 20 0 C19.71125 2.90167969 19.4225 5.80335937 19.125 8.79296875 C18.84641996 11.60939902 18.56867751 14.42591072 18.29101562 17.24243164 C18.09788121 19.19694548 17.90387873 21.15137376 17.70898438 23.10571289 C17.42869422 25.91790979 17.1515467 28.73040156 16.875 31.54296875 C16.78750488 32.41398727 16.70000977 33.2850058 16.60986328 34.18241882 C16.22382379 38.13750309 15.8859804 42.02000322 16 46 C21.14868338 39.39212756 26.22862744 32.73797573 31.20141602 25.99658203 C32.40547531 24.36708954 33.61698674 22.74307859 34.83569336 21.12451172 C37.61278647 17.4069777 40.22068417 13.7463712 42.44921875 9.671875 C44.66364127 5.76330897 46.47968976 2.87775035 50 0 C56.25554854 -1.59239462 62.67772515 -0.81787128 69 0 C67.65283182 2.86253357 66.12226944 5.34286804 64.234375 7.87890625 C63.68152832 8.6251123 63.12868164 9.37131836 62.55908203 10.14013672 C61.96208496 10.9395166 61.36508789 11.73889648 60.75 12.5625 C59.47121176 14.28505054 58.19256988 16.00770974 56.9140625 17.73046875 C56.26083008 18.60880371 55.60759766 19.48713867 54.93457031 20.39208984 C53.12252262 22.83483258 51.32046207 25.28447352 49.5234375 27.73828125 C42.56650585 37.23390373 35.50700611 46.64248395 28.32861328 55.97216797 C27.69165527 56.80248535 27.05469727 57.63280273 26.3984375 58.48828125 C25.79128906 59.26558594 25.18414062 60.04289062 24.55859375 60.84375 C22.80429653 63.13766617 22.80429653 63.13766617 21.2734375 66.58203125 C18.48358446 69.54924608 17.54534265 69.4137481 13.578125 69.5859375 C11.46795403 69.54612295 9.35819226 69.47466 7.25 69.375 C5.63158203 69.33439453 5.63158203 69.33439453 3.98046875 69.29296875 C1.31828935 69.22229142 -1.33984236 69.12368401 -4 69 C-3.28856353 45.9641778 -1.58643162 22.9882921 0 0 Z " fill="#118AFA" transform="translate(47,101)"/>
<path d="M0 0 C1.17443161 -0.00855011 1.17443161 -0.00855011 2.37258911 -0.01727295 C4.02848971 -0.02671345 5.68440901 -0.03325316 7.34033203 -0.03710938 C9.86654616 -0.04681252 12.39194558 -0.07784282 14.91796875 -0.109375 C16.52864101 -0.11590575 18.13931908 -0.12115594 19.75 -0.125 C20.8783577 -0.1435202 20.8783577 -0.1435202 22.0295105 -0.16241455 C26.49573163 -0.14355451 29.56181786 0.25173685 33.0078125 3.203125 C35.21722068 9.78246123 31.48328149 17.25315778 29.0078125 23.265625 C27.6878125 26.545 26.3678125 29.824375 25.0078125 33.203125 C12.4678125 33.533125 -0.0721875 33.863125 -12.9921875 34.203125 C-13.9821875 36.678125 -13.9821875 36.678125 -14.9921875 39.203125 C3.3228125 39.698125 3.3228125 39.698125 22.0078125 40.203125 C19.0078125 50.203125 19.0078125 50.203125 17.0078125 53.203125 C14.28106035 53.5667047 11.77144908 53.74019818 9.03515625 53.78515625 C8.23807755 53.8078508 7.44099884 53.83054535 6.61976624 53.85392761 C4.92775453 53.89858166 3.23553646 53.93591736 1.54321289 53.96655273 C-1.02091425 54.01498705 -3.58314946 54.09056702 -6.14648438 54.16992188 C-7.7942317 54.20997682 -9.44201871 54.24843698 -11.08984375 54.28515625 C-12.22474998 54.31933403 -12.22474998 54.31933403 -13.38258362 54.35420227 C-19.7505388 54.44524486 -26.56199519 54.27767941 -31.5546875 50.015625 C-33.86380947 45.49777767 -33.54384926 42.07705651 -32.14575195 37.32788086 C-30.95587561 33.94332658 -29.67881521 30.60482619 -28.3671875 27.265625 C-27.94050781 26.12416016 -27.51382813 24.98269531 -27.07421875 23.80664062 C-23.44477561 14.42967632 -19.15526374 7.18938091 -10.9921875 1.203125 C-7.29657296 -0.02874651 -3.85059025 0.021638 0 0 Z M-5.9921875 15.203125 C-7.36408577 18.23294806 -7.36408577 18.23294806 -7.9921875 21.203125 C-4.86736188 21.28999996 -1.74284504 21.34347068 1.3828125 21.390625 C2.27226562 21.41576172 3.16171875 21.44089844 4.078125 21.46679688 C4.92890625 21.47646484 5.7796875 21.48613281 6.65625 21.49609375 C7.44177246 21.5118042 8.22729492 21.52751465 9.03662109 21.54370117 C9.68711426 21.43131104 10.33760742 21.3189209 11.0078125 21.203125 C13.37761263 18.24935002 13.37761263 18.24935002 13.0078125 14.203125 C10.32548423 12.86196086 8.18948991 13.03408479 5.1953125 13.015625 C3.63876953 12.99435547 3.63876953 12.99435547 2.05078125 12.97265625 C-1.17721376 13.21713854 -3.22151156 13.51557543 -5.9921875 15.203125 Z " fill="#2A2A2A" transform="translate(252.9921875,116.796875)"/>
<path d="M0 0 C0.78295441 -0.00428513 1.56590881 -0.00857025 2.37258911 -0.01298523 C4.02849359 -0.01872581 5.68442329 -0.01923078 7.34033203 -0.01489258 C9.8666522 -0.01173892 12.3917939 -0.0351718 14.91796875 -0.06054688 C16.52864436 -0.06282062 18.13932311 -0.06352301 19.75 -0.0625 C20.50223846 -0.07170975 21.25447693 -0.08091949 22.0295105 -0.09040833 C27.78006153 -0.04000778 30.98233026 1.27529901 35.0078125 5.30078125 C35.5000134 10.67508297 34.38423158 14.88525182 32.3828125 19.80078125 C32.11283447 20.48640137 31.84285645 21.17202148 31.56469727 21.87841797 C31.00074535 23.30718335 30.43209329 24.73410197 29.85888672 26.15917969 C29.02740175 28.25148781 28.23349508 30.35444563 27.44921875 32.46484375 C26.94843512 33.78535298 26.44715259 35.10567315 25.9453125 36.42578125 C25.27822266 38.19308594 25.27822266 38.19308594 24.59765625 39.99609375 C21.839556 45.72914735 18.3020082 49.92266661 12.38720703 52.47412109 C3.63852764 55.5136274 -6.76636625 54.4162501 -15.8671875 54.17578125 C-17.15882813 54.16546875 -18.45046875 54.15515625 -19.78125 54.14453125 C-21.02390625 54.11101562 -22.2665625 54.0775 -23.546875 54.04296875 C-25.22499268 54.00985596 -25.22499268 54.00985596 -26.93701172 53.97607422 C-30.96370635 53.08604406 -32.49756784 51.53470761 -34.9921875 48.30078125 C-36.30733752 42.5652142 -33.7370622 37.36369577 -30.89453125 32.49609375 C-29.59270051 30.45987147 -28.27029178 28.43668766 -26.9296875 26.42578125 C-26.2480957 25.37310059 -25.56650391 24.32041992 -24.86425781 23.23583984 C-22.92316278 20.24644241 -20.95870396 17.2734837 -18.9921875 14.30078125 C-18.10020455 12.91707572 -17.21042491 11.53194368 -16.32421875 10.14453125 C-11.49890239 2.68475511 -9.14264692 -0.01101788 0 0 Z M-6.9921875 16.30078125 C-8.96422921 19.2673281 -10.18516537 22.41210333 -11.4296875 25.73828125 C-11.77966797 26.59744141 -12.12964844 27.45660156 -12.49023438 28.34179688 C-14.06603911 32.31677204 -14.9921875 34.95243566 -14.9921875 39.30078125 C-11.73535347 40.92919826 -8.19260415 40.56873702 -4.6171875 40.61328125 C-3.84890625 40.64228516 -3.080625 40.67128906 -2.2890625 40.70117188 C1.19473815 40.74034956 3.34121438 40.73310804 6.30859375 38.80859375 C8.65980051 35.33853687 10.25404661 31.74086552 11.8203125 27.86328125 C12.14451172 27.11240234 12.46871094 26.36152344 12.80273438 25.58789062 C14.48932471 21.48156684 15.56917962 18.68831009 14.0078125 14.30078125 C11.02342297 13.30598474 8.88125664 13.10312948 5.7578125 13.05078125 C4.84515625 13.025 3.9325 12.99921875 2.9921875 12.97265625 C-1.02012082 13.4138001 -3.51426348 14.19017822 -6.9921875 16.30078125 Z " fill="#2B2B2B" transform="translate(160.9921875,116.69921875)"/>
<path d="M0 0 C5.94 0 11.88 0 18 0 C17.05610147 4.71949266 15.73563661 8.54771478 14 13 C18.29 13.33 22.58 13.66 27 14 C25.44275132 18.74253007 23.85539807 23.36150483 22 28 C17.05 28 12.1 28 7 28 C6.62875 29.32 6.2575 30.64 5.875 32 C3.64581463 39.47369396 0.79014817 46.72213777 -2 54 C1.96 54 5.92 54 10 54 C7.25 63.625 7.25 63.625 5 67 C2.23892713 67.44668823 -0.28515553 67.70209111 -3.0625 67.8125 C-3.82949219 67.85036621 -4.59648437 67.88823242 -5.38671875 67.92724609 C-10.92103054 68.13009269 -15.69259214 67.70595253 -21 66 C-22 65 -22 65 -22.40625 61.34765625 C-22.32739248 54.24062262 -19.1887472 47.89032922 -16.5 41.4375 C-15.96862517 40.13013635 -15.438665 38.82219678 -14.91015625 37.51367188 C-13.62053695 34.33651886 -12.31692638 31.16590884 -11 28 C-14.63 28 -18.26 28 -22 28 C-21.50102223 23.0102223 -20.67145048 17.63673228 -17 14 C-12.85954465 12.96902111 -9.32050999 13 -5 13 C-3.35 8.71 -1.7 4.42 0 0 Z " fill="#2B2B2B" transform="translate(314,103)"/>
<path d="M0 0 C1.1127832 -0.01836914 1.1127832 -0.01836914 2.24804688 -0.03710938 C4.18763629 -0.04238478 6.1267371 0.06561098 8.0625 0.1875 C8.7225 0.8475 9.3825 1.5075 10.0625 2.1875 C6.56241737 10.90715592 3.05959291 19.62570369 -0.44677639 28.34283352 C-2.07468425 32.39020121 -3.70163058 36.43794997 -5.32641602 40.48657227 C-6.89327741 44.39075938 -8.46261664 48.29394177 -10.03370857 52.1964283 C-10.63387217 53.68846895 -11.23312882 55.18087472 -11.83148003 56.67364311 C-12.66710377 58.75791906 -13.50588872 60.84089523 -14.34545898 62.92358398 C-15.06160622 64.70562477 -15.06160622 64.70562477 -15.79222107 66.52366638 C-16.9375 69.1875 -16.9375 69.1875 -17.9375 70.1875 C-19.28017413 70.27381874 -20.62724322 70.29456473 -21.97265625 70.28515625 C-22.78154297 70.28193359 -23.59042969 70.27871094 -24.42382812 70.27539062 C-25.27396484 70.26701172 -26.12410156 70.25863281 -27 70.25 C-27.85400391 70.24548828 -28.70800781 70.24097656 -29.58789062 70.23632812 C-31.70445663 70.22450373 -33.82098685 70.20656769 -35.9375 70.1875 C-31.02830422 56.83793253 -25.80858689 43.61350195 -20.56762695 30.39135742 C-19.59545962 27.93749453 -18.62442624 25.48322352 -17.65551758 23.02807617 C-16.24561993 19.4564771 -14.83228483 15.8862576 -13.41796875 12.31640625 C-12.982603 11.2124501 -12.54723724 10.10849396 -12.09867859 8.97108459 C-11.69768448 7.96170334 -11.29669037 6.95232208 -10.88354492 5.91235352 C-10.53080002 5.0212941 -10.17805511 4.13023468 -9.81462097 3.21217346 C-7.90764183 -1.18973937 -4.24656744 0.00367033 0 0 Z " fill="#2A2A2A" transform="translate(223.9375,99.8125)"/>
<path d="M0 0 C5.94 0 11.88 0 18 0 C11.46421256 18.5753959 2.28902714 35.67843248 -7 53 C-11.62 53 -16.24 53 -21 53 C-17.02598234 42.25369732 -12.89102424 31.58122027 -8.62084961 20.94921875 C-7.66900497 18.57894385 -6.72006849 16.20751892 -5.77148438 13.8359375 C-5.16422744 12.32024641 -4.55681189 10.80461885 -3.94921875 9.2890625 C-3.66696945 8.58399567 -3.38472015 7.87892883 -3.09391785 7.15249634 C-1.11622609 2.23245218 -1.11622609 2.23245218 0 0 Z " fill="#2A2A2A" transform="translate(116,117)"/>
<path d="M0 0 C0.66 0.33 1.32 0.66 2 1 C2 1.66 2 2.32 2 3 C1.21625 3.45375 0.4325 3.9075 -0.375 4.375 C-3.25058508 6.1551241 -3.77596249 6.95093359 -5 10 C-6.06579298 15.35970892 -5.25453544 19.20526078 -2.25 23.75 C-1.19535541 25.18815171 -0.1103573 26.6044133 1 28 C1.89912109 29.20849609 1.89912109 29.20849609 2.81640625 30.44140625 C5.34257667 33.40140915 8.13431124 35.80200659 11.1875 38.1875 C11.78320801 38.65655762 12.37891602 39.12561523 12.99267578 39.60888672 C19.22819441 44.38758328 25.93831513 48.25467934 32.7734375 52.1015625 C33.83820313 52.72804687 34.90296875 53.35453125 36 54 C36 54.33 36 54.66 36 55 C23.87692903 55.84508099 11.89593363 45.44132827 3 38 C-3.65743271 32.13912782 -9.30178501 26.16838748 -13 18 C-13.33 17.34 -13.66 16.68 -14 16 C-14.50890436 9.89314771 -14.0775461 6.87040228 -10 2 C-6.64826764 -1.46345677 -4.55614313 -1.18855908 0 0 Z " fill="#2A2A2B" transform="translate(99,42)"/>
<path d="M0 0 C5.02861045 0.5778217 9.22565119 2.20785276 13.75 4.375 C14.48299316 4.7244165 15.21598633 5.07383301 15.97119141 5.43383789 C28.93662972 11.76806635 41.29282259 19.28090104 52 29 C52.74765625 29.66644531 53.4953125 30.33289063 54.265625 31.01953125 C60.87248041 37.22263439 65.41289291 43.80198898 66 53 C59.25 50.25 59.25 50.25 57 48 C56.505 46.2984375 56.505 46.2984375 56 44.5625 C49.46131033 26.60550151 25.12163788 14.82092142 8.890625 6.96875 C5.94264013 5.60418059 2.9889958 4.27179893 0 3 C0 2.01 0 1.02 0 0 Z " fill="#2A2A2B" transform="translate(183,52)"/>
<path d="M0 0 C-0.33 0.99 -0.66 1.98 -1 3 C-6.86372619 2.34847487 -12.23854591 0.83104126 -17.875 -0.875 C-34.07293966 -5.56019244 -48.26464079 -7.36862987 -65.20117188 -6.89013672 C-66.40966797 -6.8645166 -67.61816406 -6.83889648 -68.86328125 -6.8125 C-69.94907471 -6.77769531 -71.03486816 -6.74289063 -72.15356445 -6.70703125 C-75.35358199 -7.03639235 -76.66418395 -7.84939818 -79 -10 C-56.10482573 -19.62594429 -21.87202415 -7.56674157 0 0 Z " fill="#2A2A2B" transform="translate(179,49)"/>
<path d="M0 0 C5.61 0 11.22 0 17 0 C16 5 16 5 13 11 C7.39 11 1.78 11 -4 11 C-3 6 -3 6 0 0 Z " fill="#2B2B2B" transform="translate(122,103)"/>
<path d="M0 0 C2.64 0.66 5.28 1.32 8 2 C7.67 3.98 7.34 5.96 7 8 C3.37 8 -0.26 8 -4 8 C-2.68 5.36 -1.36 2.72 0 0 Z " fill="#2A2B2B" transform="translate(241,104)"/>
<path d="M0 0 C2.06266324 0.79124124 4.12512379 1.58301091 6.1875 2.375 C7.91033203 3.03628906 7.91033203 3.03628906 9.66796875 3.7109375 C12.45335994 4.78852143 15.22997721 5.8836443 18 7 C13.97058936 8.63166258 11.22269804 7.27379498 7.3125 5.75 C6.15363281 5.31171875 4.99476563 4.8734375 3.80078125 4.421875 C1 3 1 3 0 0 Z " fill="#147FE2" transform="translate(242,102)"/>
</svg>
